<svg xmlns="http://www.w3.org/2000/svg" viewBox="0 0 238.4944 55.4302"><path d="M0,27.2605C10.842,32.4,22.332,35.902,33.9261,36.32c11.5806.5407,22.9885-1.7974,33.7753-5.8867A162.0917,162.0917,0,0,0,83.63,23.306c5.2555-2.6364,10.4435-5.5,15.911-8.2608a94.0922,94.0922,0,0,1,8.6426-3.866,27.2259,27.2259,0,0,1,10.6648-2.0824A14.5,14.5,0,0,1,125.3391,10.9a15.1522,15.1522,0,0,1,4.8794,4.4841,22.5809,22.5809,0,0,1,2.6458,5.0589l1.5532,4.2394a101.4,101.4,0,0,0,7.0388,15.4644,28.8329,28.8329,0,0,0,2.1529,3.1418,11.0309,11.0309,0,0,0,2.1681,2.117,2.5574,2.5574,0,0,0,1.3768.5463,3.8163,3.8163,0,0,0,1.8953-.6864,26.77,26.77,0,0,0,5.4946-5.1407c1.8465-2.1235,3.6555-4.4369,5.4786-6.7876,3.6308-4.7218,7.4109-9.5413,11.5883-14.1112a73.1255,73.1255,0,0,1,14.24-12.2526A43.1693,43.1693,0,0,1,203.6434.3178a43.5934,43.5934,0,0,1,18.5323,1.786,64.9321,64.9321,0,0,1,16.3187,7.9113,76.8545,76.8545,0,0,0-16.9462-5.3236,51.2154,51.2154,0,0,0-8.6418-.7374,37.6132,37.6132,0,0,0-8.432,1.0192,40.09,40.09,0,0,0-15.0025,7.2448,70.772,70.772,0,0,0-12.0627,12.0387c-3.6735,4.4684-6.9679,9.318-10.4454,14.2181-1.7385,2.456-3.5053,4.9436-5.4775,7.4274-.994,1.2434-2.0485,2.4729-3.2376,3.6934a25.2581,25.2581,0,0,1-4.1824,3.5346,13.19,13.19,0,0,1-6.4628,2.2816,11.1349,11.1349,0,0,1-3.8583-.4653,12.7723,12.7723,0,0,1-3.2168-1.5081,20.214,20.214,0,0,1-4.3764-3.9759,38.2133,38.2133,0,0,1-3.01-4.1906,100.2758,100.2758,0,0,1-8.0393-17.0592l-1.5606-4.178a14.1538,14.1538,0,0,0-1.4712-2.89,5.2319,5.2319,0,0,0-1.6284-1.5863,4.5258,4.5258,0,0,0-2.08-.5571,19.482,19.482,0,0,0-6.831,1.3768c-2.5426.8947-5.1663,2.0686-7.8023,3.309-5.291,2.4788-10.6794,5.222-16.2322,7.7241a145.7135,145.7135,0,0,1-17.21,6.6241A93.1265,93.1265,0,0,1,52.04,41.8035a75.0764,75.0764,0,0,1-18.618-.4471A76.2966,76.2966,0,0,1,0,27.2605Z" fill="#fff"/></svg>