<svg xmlns="http://www.w3.org/2000/svg" viewBox="0 0 209.6303 86.7536"><path d="M0,86.7536A112.8427,112.8427,0,0,1,7.5853,71.8391a129.0737,129.0737,0,0,1,9.5159-13.831c6.9554-8.78,15.3085-16.67,25.2176-22.3009a62.7879,62.7879,0,0,1,15.845-6.3543,52.6228,52.6228,0,0,1,8.4733-1.4238,55.679,55.679,0,0,1,8.5968-.1472,67.6521,67.6521,0,0,1,16.8332,3.1654,88.4156,88.4156,0,0,1,15.6069,6.8651c1.2542.6665,2.4674,1.3984,3.68,2.131,1.2271.7115,2.4059,1.4941,3.5932,2.2645l3.4816,2.2518c1.1382.75,2.3318,1.399,3.4939,2.1043a63.6645,63.6645,0,0,0,14.8894,6.2479A47.7505,47.7505,0,0,0,144.7,54.2227a45.4112,45.4112,0,0,0,7.9823-.0281A43.5756,43.5756,0,0,0,168.01,49.7289a60.3126,60.3126,0,0,0,13.3811-9.1869A93.1961,93.1961,0,0,0,192.5919,28.49,137.137,137.137,0,0,0,209.63,0a111.6721,111.6721,0,0,1-6.6215,15.3809,116.05,116.05,0,0,1-8.6719,14.4112,88.4,88.4,0,0,1-10.9978,12.864,62.3978,62.3978,0,0,1-13.7832,10.1013,47.154,47.154,0,0,1-16.48,5.1445,44.631,44.631,0,0,1-8.6994.1564,51.6075,51.6075,0,0,1-8.55-1.4694,65.8842,65.8842,0,0,1-15.8746-6.5584c-1.2145-.7454-2.4647-1.4393-3.6483-2.2287l-3.52-2.306c-1.1454-.7509-2.2831-1.5153-3.4633-2.2061-1.1676-.713-2.3354-1.426-3.5387-2.0718-9.5139-5.32-19.9511-9.16-30.7653-9.8955a57.5,57.5,0,0,0-31.3232,6.8888A79.6915,79.6915,0,0,0,30.1421,47.449,110.1051,110.1051,0,0,0,18.4143,59.0967a127.7823,127.7823,0,0,0-10.04,13.24A133.1362,133.1362,0,0,0,0,86.7536Z"/></svg>